<?xml version="1.0" encoding="utf-8"?>
<!-- Generator: Adobe Illustrator 24.3.0, SVG Export Plug-In . SVG Version: 6.00 Build 0)  -->
<svg version="1.1" id="Layer_1" xmlns="http://www.w3.org/2000/svg" xmlns:xlink="http://www.w3.org/1999/xlink" x="0px" y="0px"
	 viewBox="0 0 1130.8 165.4" style="enable-background:new 0 0 1130.8 165.4;" xml:space="preserve">
<style type="text/css">
	.st0{fill:#292C62;}
	.st1{display:none;}
	.st2{display:inline;}
	.st3{fill:#292C62;stroke:#292C62;stroke-width:2;stroke-miterlimit:10;}
	.st4{display:inline;fill:none;}
	.st5{fill:#292C62;stroke:#292C62;stroke-miterlimit:10;}
	.st6{fill:#1F2268;stroke:#1F2268;stroke-width:2;stroke-miterlimit:10;}
	.st7{fill:#1F2268;stroke:#1F2268;stroke-miterlimit:10;}
</style>
<g>
	<g>
		<path class="st0" d="M138.5,148.9c-10.2,3.5-29.4,8.2-48.7,8.2c-26.6,0-45.9-6.7-59.3-19.7c-13.4-12.5-20.8-31.6-20.6-53
			C10.1,35.9,45.4,8.2,93.2,8.2c18.8,0,33.3,3.7,40.5,7.1l-6.9,26.5c-8-3.5-18-6.3-34-6.3c-27.5,0-48.2,15.6-48.2,47.2
			c0,30.1,18.8,47.8,45.9,47.8c7.6,0,13.6-0.9,16.2-2.2V97.8H84.2V72.1h54.3V148.9L138.5,148.9z"/>
		<path class="st0" d="M165.3,121.6c8.9,4.5,22.5,9.1,36.6,9.1c15.1,0,23.1-6.3,23.1-15.8c0-9.1-6.9-14.3-24.4-20.6
			c-24.2-8.4-40-21.9-40-43.1c0-24.9,20.8-43.9,55.2-43.9c16.4,0,28.6,3.5,37.2,7.4l-7.4,26.6c-5.8-2.8-16.2-6.9-30.5-6.9
			s-21.2,6.5-21.2,14.1c0,9.3,8.2,13.4,27,20.6c25.7,9.5,37.9,22.9,37.9,43.5C258.8,137,240,158,200,158c-16.7,0-33.1-4.5-41.3-9.1
			L165.3,121.6z"/>
		<path class="st0" d="M281.1,11.7c10.2-1.7,24.4-3,44.6-3c20.3,0,34.8,3.9,44.6,11.7c9.3,7.4,15.6,19.5,15.6,33.7
			s-4.8,26.4-13.4,34.6c-11.2,10.6-27.9,15.4-47.4,15.4c-4.3,0-8.2-0.2-11.2-0.6v52.1h-32.7L281.1,11.7L281.1,11.7z M313.8,77.9
			c2.8,0.6,6.3,0.9,11,0.9c17.5,0,28.3-8.9,28.3-23.8c0-13.4-9.3-21.4-25.7-21.4c-6.7,0-11.2,0.6-13.6,1.3L313.8,77.9L313.8,77.9z"
			/>
	</g>
</g>
<g class="st1">
	<g class="st2">
		<path class="st3" d="M451.5,72.2c-2.4,0.8-7,2.1-12.6,2.1c-6.2,0-11.3-1.5-15.3-5c-3.5-3.1-5.7-8.2-5.7-14.1
			C418,44,426.3,35.8,440,35.8c4.7,0,8.4,1,10.2,1.7l-1.3,4c-2.2-0.9-4.9-1.6-9-1.6c-9.9,0-16.4,5.7-16.4,15.2
			c0,9.6,6.2,15.2,15.8,15.2c3.5,0,5.8-0.4,7-1V58H438v-3.9h13.5V72.2z"/>
		<path class="st3" d="M466.8,36.2v22.3c0,8.5,4.1,12,9.5,12c6.1,0,9.9-3.7,9.9-12V36.2h5.3v22c0,11.6-6.6,16.4-15.5,16.4
			c-8.4,0-14.7-4.4-14.7-16.1V36.3L466.8,36.2L466.8,36.2L466.8,36.2z"/>
		<path class="st3" d="M502.6,36.2h5.3v33.7h17.5V74h-22.8L502.6,36.2L502.6,36.2z"/>
		<path class="st3" d="M533.2,36.2h22v4.1h-16.7v12.5H554v4h-15.5v17.1h-5.3V36.2z"/>
	</g>
	<g class="st2">
		<path class="st3" d="M1177.2,72.2c-1.9,0.9-5.7,1.8-10.6,1.8c-11.3,0-19.8-6.6-19.8-18.8c0-11.6,8.5-19.5,21-19.5
			c5,0,8.2,1,9.5,1.6l-1.3,3.9c-2-0.9-4.8-1.5-8.1-1.5c-9.4,0-15.7,5.6-15.7,15.3c0,9.1,5.7,14.9,15.4,14.9c3.2,0,6.4-0.6,8.5-1.5
			L1177.2,72.2z"/>
		<path class="st3" d="M1218.2,54.5c0,12.8-8.4,19.5-18.6,19.5c-10.6,0-18-7.6-18-18.8c0-11.8,7.9-19.5,18.6-19.5
			C1211.2,35.7,1218.2,43.5,1218.2,54.5z M1187.2,55.1c0,7.9,4.6,15,12.8,15c8.2,0,12.9-7,12.9-15.4c0-7.4-4.2-15.1-12.8-15.1
			C1191.4,39.7,1187.2,47,1187.2,55.1z"/>
		<path class="st3" d="M1223.1,70.6c0-2,1.5-3.5,3.6-3.5s3.5,1.4,3.5,3.5c0,2-1.4,3.5-3.6,3.5C1224.4,74,1223.1,72.5,1223.1,70.6z"
			/>
	</g>
	<g class="st2">
		<path class="st3" d="M881.3,67.6c2.3,1.3,5.7,2.4,9.3,2.4c5.3,0,8.4-2.6,8.4-6.3c0-3.5-2.1-5.4-7.6-7.4
			c-6.6-2.1-10.6-5.3-10.6-10.5c0-5.8,5.2-10.1,13-10.1c4.1,0,7.1,0.9,8.9,1.8l-1.4,3.9c-1.3-0.7-4-1.8-7.6-1.8
			c-5.5,0-7.6,3-7.6,5.6c0,3.5,2.4,5.2,8,7.1c6.8,2.4,10.2,5.4,10.2,10.9c0,5.7-4.6,10.7-14.1,10.7c-3.9,0-8.1-1-10.2-2.4
			L881.3,67.6z"/>
		<path class="st3" d="M934,56h-15.6v13.4h17.4v4h-22.5V36.2H935v4h-16.5V52h15.6L934,56L934,56z"/>
		<path class="st3" d="M944.5,36.8c2.6-0.5,6.4-0.8,9.9-0.8c5.5,0,9.1,0.9,11.6,3c2,1.6,3.2,4.2,3.2,7c0,4.9-3.3,8.1-7.6,9.5v0.2
			c3.1,1,4.9,3.6,5.9,7.5c1.3,5.2,2.3,8.7,3.1,10.2h-5.3c-0.7-1-1.5-4.2-2.7-8.9c-1.2-5.1-3.3-7-8-7.2h-4.9v16.1h-5.2V36.8
			L944.5,36.8z M949.8,53.7h5.3c5.5,0,9.1-2.8,9.1-7c0-4.8-3.8-6.9-9.2-6.9c-2.5,0-4.3,0.2-5.1,0.4L949.8,53.7L949.8,53.7z"/>
		<path class="st3" d="M988.2,73.4l-13.1-37.1h5.6l6.3,18.3c1.7,5,3.2,9.5,4.3,13.9h0.1c1.1-4.3,2.8-9,4.6-13.8l6.8-18.3h5.5
			l-14.4,37.1L988.2,73.4L988.2,73.4z"/>
		<path class="st3" d="M1019.8,36.4v37.1h-5.2V36.4H1019.8z"/>
		<path class="st3" d="M1058.8,72.2c-1.9,0.9-5.7,1.8-10.6,1.8c-11.3,0-19.8-6.6-19.8-18.8c0-11.6,8.5-19.5,21-19.5
			c5,0,8.2,1,9.5,1.6l-1.3,3.9c-2-0.9-4.8-1.5-8.1-1.5c-9.4,0-15.7,5.6-15.7,15.3c0,9.1,5.7,14.9,15.4,14.9c3.2,0,6.4-0.6,8.5-1.5
			L1058.8,72.2z"/>
		<path class="st3" d="M1087.9,56h-15.6v13.4h17.4v4h-22.6V36.2h21.7v4h-16.5V52h15.6V56z"/>
		<path class="st3" d="M1097.7,67.6c2.3,1.3,5.7,2.4,9.3,2.4c5.3,0,8.4-2.6,8.4-6.3c0-3.5-2.1-5.4-7.6-7.4
			c-6.6-2.1-10.6-5.3-10.6-10.5c0-5.8,5.2-10.1,13-10.1c4.1,0,7.1,0.9,8.9,1.8l-1.4,3.9c-1.3-0.7-4-1.8-7.6-1.8
			c-5.5,0-7.6,3-7.6,5.6c0,3.5,2.4,5.2,8,7.1c6.8,2.4,10.2,5.4,10.2,10.9c0,5.7-4.6,10.7-14.1,10.7c-3.9,0-8.1-1-10.2-2.4
			L1097.7,67.6z"/>
	</g>
	<g class="st2">
		<path class="st3" d="M724,37.2c2.5-0.4,5.8-0.7,9.9-0.7c5.1,0,8.9,1.1,11.3,3.1c2.2,1.8,3.5,4.5,3.5,7.8c0,3.4-1.1,6-3.1,7.9
			c-2.7,2.7-7.2,4.1-12.3,4.1c-1.5,0-3-0.1-4.2-0.3v14.8h-5.2L724,37.2L724,37.2z M729.2,55.1c1.1,0.3,2.6,0.4,4.3,0.4
			c6.3,0,10.1-2.8,10.1-7.9c0-4.9-3.8-7.3-9.5-7.3c-2.3,0-4,0.2-4.9,0.4L729.2,55.1L729.2,55.1z"/>
		<path class="st3" d="M792,54.9c0,12.8-8.4,19.5-18.6,19.5c-10.6,0-18-7.6-18-18.8c0-11.8,7.9-19.5,18.6-19.5
			C784.8,36.2,792,43.9,792,54.9z M760.8,55.5c0,7.9,4.6,15,12.8,15s12.9-7,12.9-15.4c0-7.4-4.2-15.1-12.8-15.1
			C765,40.1,760.8,47.4,760.8,55.5z"/>
		<path class="st3" d="M800.5,37.3c2.6-0.5,6.4-0.8,9.9-0.8c5.5,0,9.1,0.9,11.6,3c2,1.6,3.2,4.2,3.2,7c0,4.9-3.3,8.1-7.6,9.5v0.2
			c3.1,1,4.9,3.6,5.9,7.5c1.3,5.2,2.3,8.7,3.1,10.2h-5.3c-0.7-1-1.5-4.2-2.7-8.9c-1.2-5.1-3.3-7-8-7.2h-4.9v16.1h-5.2V37.3
			L800.5,37.3z M805.8,54.2h5.3c5.5,0,9.1-2.8,9.1-7c0-4.8-3.8-6.9-9.2-6.9c-2.5,0-4.3,0.2-5.1,0.4L805.8,54.2L805.8,54.2z"/>
		<path class="st3" d="M860.3,40.5v-3.8h-1C859.7,37.9,860,39.2,860.3,40.5z"/>
		<path class="st3" d="M842.8,69.8v4h5.2v-6.5C846.4,68.3,844.6,69.2,842.8,69.8z"/>
	</g>
	<g class="st2">
		<path class="st3" d="M576.2,68.1c2.4,1.3,5.8,2.5,9.5,2.5c5.4,0,8.6-2.6,8.6-6.4c0-3.5-2.2-5.5-7.7-7.5
			c-6.7-2.2-10.8-5.4-10.8-10.7c0-5.9,5.3-10.2,13.2-10.2c4.2,0,7.2,0.9,9,1.8l-1.5,4c-1.3-0.7-4.1-1.8-7.8-1.8
			c-5.6,0-7.7,3.1-7.7,5.7c0,3.5,2.5,5.3,8.1,7.3c6.9,2.5,10.4,5.5,10.4,11.1c0,5.8-4.7,10.9-14.3,10.9c-3.9,0-8.2-1.1-10.4-2.4
			L576.2,68.1z"/>
		<path class="st3" d="M629.8,56.2H614v13.6h17.7V74h-23V36.3h22.1v4.1H614v11.9h15.9v3.9H629.8z"/>
		<path class="st3" d="M647,62.1L642.8,74h-5.5l13.9-37.7h6.4l14,37.7H666l-4.4-11.9H647z M660.3,58.2l-4-10.9
			c-0.9-2.5-1.5-4.7-2.1-6.9h-0.1c-0.6,2.2-1.3,4.5-2.1,6.8l-4,10.9h12.3L660.3,58.2L660.3,58.2z"/>
		<path class="st3" d="M678.5,68.1c2.4,1.3,5.8,2.5,9.5,2.5c5.4,0,8.6-2.6,8.6-6.4c0-3.5-2.2-5.5-7.7-7.5
			c-6.7-2.2-10.8-5.4-10.8-10.7c0-5.9,5.3-10.2,13.2-10.2c4.2,0,7.2,0.9,9,1.8l-1.5,4c-1.3-0.7-4.1-1.8-7.8-1.8
			c-5.6,0-7.7,3.1-7.7,5.7c0,3.5,2.5,5.3,8.1,7.3c6.9,2.5,10.4,5.5,10.4,11.1c0,5.8-4.7,10.9-14.3,10.9c-3.9,0-8.2-1.1-10.4-2.4
			L678.5,68.1z"/>
	</g>
	<line class="st4" x1="1168.2" y1="109.2" x2="1162.2" y2="113.2"/>
	<g class="st2">
		<g>
			<path class="st5" d="M428.8,121.8c-1.6,0-3-0.3-4.2-0.8s-2.2-1.2-2.9-2.1c-0.8-0.9-1.4-1.9-1.8-3.1s-0.6-2.5-0.6-3.8
				c0-3.1,0.9-5.6,2.6-7.4c1.7-1.9,4.3-2.8,7.5-2.8c0.8,0,1.8,0.1,2.7,0.2c1,0.1,1.9,0.3,2.8,0.4c0.9,0.2,1.9,0.4,2.9,0.6v10.4
				c0,0.8-0.1,1.7-0.2,2.7s-0.5,1.9-1.1,2.7c-0.6,0.8-1.4,1.5-2.6,2.1s-2.8,0.9-4.8,0.9L428.8,121.8L428.8,121.8z M434.1,105.8
				c-0.5-0.1-1-0.2-1.7-0.2s-1.6-0.1-2.8-0.1c-1.2,0-2.2,0.2-2.9,0.5c-0.8,0.3-1.4,0.8-1.9,1.4s-0.8,1.3-1.1,2.1
				c-0.2,0.8-0.3,1.7-0.3,2.6c0,1.1,0.2,2,0.5,2.7c0.3,0.8,0.7,1.4,1.2,1.8c0.5,0.5,1.1,0.8,1.8,1c0.7,0.2,1.4,0.3,2.2,0.3h0.6
				c0.9,0,1.6-0.1,2.2-0.4s1-0.6,1.3-1s0.5-0.8,0.7-1.2c0.1-0.4,0.2-0.7,0.2-1C434.1,114.2,434.1,105.8,434.1,105.8z M424.8,96.1
				c0-0.7,0.2-1.3,0.7-1.7c0.5-0.5,1.1-0.7,1.7-0.7c0.7,0,1.3,0.2,1.7,0.7c0.5,0.5,0.7,1.1,0.7,1.7s-0.2,1.3-0.7,1.7
				c-0.5,0.5-1.1,0.7-1.7,0.7c-0.7,0-1.3-0.2-1.7-0.7C425,97.4,424.8,96.8,424.8,96.1z M431.1,96.1c0-0.7,0.2-1.3,0.7-1.7
				c0.5-0.5,1.1-0.7,1.7-0.7c0.7,0,1.3,0.2,1.7,0.7c0.5,0.5,0.7,1.1,0.7,1.7s-0.2,1.3-0.7,1.7c-0.5,0.5-1.1,0.7-1.7,0.7
				c-0.7,0-1.3-0.2-1.7-0.7C431.3,97.4,431.1,96.8,431.1,96.1z"/>
			<path class="st5" d="M442.4,118.7c0-0.7,0.3-1,0.9-1h15.3V114c0-1.3-0.1-2.4-0.4-3.2c-0.3-0.8-0.7-1.6-1.2-2.1
				c-0.6-0.6-1.3-1-2.3-1.4c-0.9-0.4-1.9-0.7-3-0.9c-1-0.2-2-0.4-2.8-0.6s-1.6-0.3-2.2-0.5c-1.2-0.2-1.7-0.8-1.5-1.7l0.5-2.2
				c1.1,0.2,2.2,0.4,3.1,0.6s2.1,0.5,3.5,0.8c1.5,0.3,2.9,0.8,4.3,1.5s2.5,1.5,3.4,2.4c0.8,0.9,1.4,1.9,1.7,3
				c0.3,1.1,0.5,2.2,0.5,3.4v3.2c0,0.8,0,1.5-0.1,2.1s-0.3,1.1-0.6,1.6c-0.3,0.4-0.8,0.8-1.4,1s-1.5,0.3-2.6,0.3h-15.1L442.4,118.7
				L442.4,118.7z"/>
			<path class="st5" d="M478.4,102.4c1,0,2,0.1,3,0.2c0.9,0.1,1.8,0.3,2.6,0.5s1.5,0.4,2.3,0.6v17.9c0,2.1-0.2,3.9-0.5,5.3
				c-0.4,1.4-0.9,2.5-1.6,3.4c-0.7,0.9-1.7,1.4-2.8,1.8c-1.1,0.3-2.4,0.5-3.9,0.5c-0.3,0-0.7,0-1.1,0c-0.5,0-0.9-0.1-1.4-0.1
				s-1-0.1-1.4-0.2c-0.5-0.1-0.8-0.2-1.1-0.3c-0.4-0.1-0.6-0.3-0.8-0.6c-0.2-0.2-0.2-0.6-0.1-1.1l0.5-2.1c0.6,0.1,1.2,0.3,1.7,0.4
				c0.6,0.1,1.2,0.2,1.8,0.3c0.6,0.1,1.3,0.1,1.9,0.1c1.2,0,2.1-0.2,2.8-0.6c0.7-0.4,1.2-0.9,1.6-1.5c0.3-0.6,0.6-1.3,0.7-2.1
				c0.1-0.8,0.1-1.6,0.1-2.4V121c-0.3,0.1-0.7,0.2-1.1,0.3c-0.4,0.1-0.9,0.2-1.4,0.2c-0.5,0.1-1.1,0.1-1.8,0.1
				c-1.1,0-2.3-0.1-3.5-0.3c-1.2-0.2-2.4-0.7-3.4-1.3c-1-0.7-1.9-1.6-2.6-2.8c-0.7-1.2-1-2.8-1-4.8c0-1.8,0.3-3.3,0.9-4.6
				c0.6-1.3,1.4-2.3,2.4-3.1c1-0.8,2.1-1.3,3.4-1.7C475.6,102.5,477,102.4,478.4,102.4z M482.3,106.2c-0.5-0.2-1.1-0.3-1.9-0.4
				s-1.6-0.1-2.3-0.1c-1.9,0-3.4,0.5-4.6,1.5s-1.8,2.6-1.8,4.8c0,1.1,0.2,2.1,0.5,2.9c0.4,0.8,0.8,1.4,1.4,1.8
				c0.6,0.5,1.3,0.8,2.1,1c0.8,0.2,1.6,0.3,2.5,0.3c0.8,0,1.4,0,1.9-0.1s1-0.2,1.3-0.3c0.3-0.1,0.6-0.2,0.9-0.4V106.2z"/>
			<path class="st5" d="M490.8,118.7c0-0.7,0.3-1,0.9-1H507V114c0-1.3-0.1-2.4-0.4-3.2c-0.3-0.8-0.7-1.6-1.2-2.1
				c-0.6-0.6-1.3-1-2.3-1.4c-0.9-0.4-1.9-0.7-3-0.9c-1-0.2-2-0.4-2.8-0.6s-1.6-0.3-2.2-0.5c-1.2-0.2-1.7-0.8-1.5-1.7l0.5-2.2
				c1.1,0.2,2.2,0.4,3.1,0.6s2.1,0.4,3.5,0.8c1.5,0.3,2.9,0.8,4.3,1.5s2.5,1.5,3.4,2.4c0.8,0.9,1.4,1.9,1.7,3s0.5,2.2,0.5,3.4v2.9
				c0.3,0.3,0.7,0.6,1.1,0.8c0.5,0.2,1,0.4,1.6,0.6s1.4,0.2,2.4,0.2h1v3.7h-1c-0.8,0-1.7-0.2-2.7-0.5c-1.1-0.3-2-0.8-2.8-1.6
				c-0.3,0.7-0.7,1.2-1.4,1.5c-0.7,0.4-1.7,0.5-3.1,0.5h-14.9L490.8,118.7L490.8,118.7z"/>
			<path class="st5" d="M540,119.4c-0.3,0.7-0.7,1.2-1.3,1.5s-1.5,0.5-2.6,0.5h-21v-3.7h21.4v-4.1c0-1.2,0-2.3-0.1-3.3
				s-0.4-1.8-0.8-2.4s-1.1-1.2-2.1-1.5c-1-0.4-2.3-0.5-4-0.5c-1.5,0-3,0.1-4.4,0.3c-1.4,0.2-2.5,0.4-3.3,0.6s-1.3,0-1.4-0.6
				l-0.6-2.5c0.9-0.2,1.8-0.4,2.8-0.6s2.1-0.3,3.3-0.5c1.2-0.1,2.4-0.2,3.8-0.2c1.9,0,3.6,0.2,4.9,0.6s2.4,1,3.3,1.8
				c0.8,0.8,1.5,1.9,1.8,3.2c0.4,1.3,0.6,2.9,0.6,4.7v3.5c0.3,0.3,0.7,0.5,1.1,0.8c0.5,0.2,1,0.4,1.7,0.6s1.5,0.2,2.4,0.2h0.9v3.7
				h-0.9c-0.8,0-1.7-0.2-2.8-0.5C541.8,120.6,540.8,120.1,540,119.4z"/>
			<path class="st5" d="M582.2,111.6c0,1.5-0.1,2.8-0.4,4s-0.7,2.2-1.4,3.1c-0.7,0.8-1.5,1.5-2.7,2c-1.1,0.5-2.5,0.7-4.2,0.8h-0.9
				c-0.4,0-0.8,0-1.3-0.1s-1-0.2-1.5-0.4c-0.5-0.2-1-0.4-1.5-0.7c-0.5-0.3-0.9-0.6-1.3-0.9c-0.4,1-1,1.9-1.9,2.5c-0.9,0.7-2.2,1-4,1
				c-0.6,0-1.3-0.1-2.2-0.2s-1.8-0.3-2.7-0.5s-1.9-0.4-3-0.7H545v-3.7h4.7c-0.2-0.5-0.4-1.2-0.6-2.2s-0.3-2.2-0.3-3.5
				c0-1.4,0.3-2.8,0.8-3.9c0.5-1.2,1.2-2.2,2.2-3.1c0.9-0.8,2.1-1.5,3.4-2s2.9-0.7,4.6-0.7c0.8,0,1.7,0.1,2.6,0.2
				c0.9,0.1,1.8,0.3,2.6,0.5s1.6,0.4,2.5,0.6v12.5c0,0.1,0.2,0.2,0.4,0.3c0.2,0.2,0.5,0.3,1,0.5c0.4,0.2,0.9,0.3,1.5,0.5
				c0.6,0.1,1.4,0.2,2.2,0.2h0.4c1.9,0,3.2-0.4,4.1-1.2c0.9-0.8,1.3-2,1.3-3.5V92.8c0-0.4,0.1-0.7,0.4-1c0.2-0.3,0.5-0.4,0.9-0.4
				h2.5L582.2,111.6L582.2,111.6z M563.8,116.2v-9.6c-0.5-0.1-1-0.2-1.6-0.3c-0.6-0.1-1.4-0.2-2.3-0.2c-1.2,0-2.3,0.2-3.2,0.5
				c-0.9,0.4-1.6,0.8-2.2,1.4c-0.6,0.6-1,1.2-1.3,2s-0.4,1.5-0.4,2.3c0,0.9,0,1.6,0.1,2.3c0.1,0.7,0.2,1.3,0.3,1.8s0.3,0.9,0.4,1.3
				c0.7,0.2,1.4,0.4,2.1,0.6s1.3,0.3,2,0.5s1.2,0.3,1.7,0.3c1.4,0.3,2.4,0.2,3.2-0.3C563.5,118.4,563.8,117.5,563.8,116.2z"/>
			<path class="st5" d="M593,120c0,0.4-0.1,0.7-0.4,1s-0.6,0.4-1,0.4h-2.5V92.9c0-0.4,0.1-0.7,0.4-1s0.6-0.4,1-0.4h2.5V120z"/>
			<path class="st5" d="M631.1,129.5c0.6,0,1.2-0.1,1.8-0.2c0.7-0.2,1.2-0.4,1.8-0.8c0.6-0.4,1-0.8,1.3-1.3c0.4-0.5,0.5-1.2,0.5-1.9
				c0-0.9-0.2-1.6-0.6-2.3c-0.4-0.7-0.9-1.3-1.6-1.9s-1.4-1.1-2.3-1.5s-1.7-0.8-2.6-1.1c0-0.1,0.3-0.9,0.8-2.5
				c0.1-0.4,0.3-0.7,0.5-0.9c0.2-0.3,0.6-0.3,1.2,0c0.6,0.3,1.3,0.5,2,0.9c0.7,0.3,1.4,0.6,2.2,0.9s1.6,0.5,2.5,0.7s1.9,0.3,3,0.3
				h2.6v3.7h-5c0.2,0.3,0.4,0.6,0.5,1s0.3,0.8,0.4,1.3c0.1,0.5,0.2,1.2,0.2,1.9c0,0.6-0.1,1.3-0.4,2.1c-0.3,0.8-0.8,1.7-1.5,2.5
				c-0.8,0.8-1.8,1.5-3.1,2c-1.3,0.6-2.9,0.8-4.9,0.8h-7.3c-1.6,0-3.1-0.2-4.5-0.6c-1.5-0.4-2.7-1-3.8-1.9s-2-2.1-2.6-3.6
				c-0.6-1.5-1-3.4-1-5.7c0-0.8,0.1-1.5,0.2-2.4c0.1-0.8,0.3-1.6,0.4-2.4c0.2-0.8,0.4-1.5,0.6-2.2s0.4-1.3,0.6-1.9
				c1.3,0.3,2,0.5,2.2,0.5c0.3,0.1,0.5,0.3,0.7,0.5c0.1,0.2,0.1,0.5,0,1c-0.1,0.6-0.3,1.4-0.6,2.6s-0.4,2.6-0.4,4.2
				c0,1.8,0.3,3.2,0.9,4.3c0.6,1.1,1.3,1.9,2.3,2.5c0.9,0.6,1.9,0.9,3,1.1c1.1,0.2,2.2,0.3,3.2,0.3L631.1,129.5L631.1,129.5z
				 M611.5,110.4v-1.3c0-0.4,0.1-0.6,0.3-0.8c0.2-0.2,0.4-0.3,0.6-0.3h0.4c-0.2-0.2-0.3-0.4-0.4-0.7c-0.1-0.3-0.1-0.7-0.1-1.2
				c0-0.7,0.1-1.3,0.4-1.8c0.3-0.5,0.6-1,1.1-1.3s1-0.6,1.6-0.7s1.2-0.2,1.9-0.2c0.5,0,0.9,0,1.3,0.1c0.4,0,0.8,0.1,1.2,0.2
				c0.3,0.1,0.7,0.2,1,0.2l-0.2,1.4c-0.1,0.3-0.2,0.5-0.3,0.6s-0.3,0.2-0.5,0.2c-0.1,0-0.3,0-0.8-0.1s-1-0.1-1.5-0.1
				c-1,0-1.7,0.2-2.1,0.6s-0.5,0.7-0.5,1.1c0,0.5,0.1,0.8,0.3,1s0.4,0.4,0.6,0.5s0.5,0.2,0.8,0.3s0.6,0.1,0.9,0.1h2.5
				c0.3,0,0.4,0.1,0.5,0.2c0.1,0.2,0.1,0.3,0.1,0.5v1.6L611.5,110.4L611.5,110.4z"/>
			<path class="st5" d="M651.5,103.9c0.3-0.3,0.6-0.4,1-0.4h2.5v10.2c0,2.6-0.8,4.5-2.3,5.8c-1.5,1.2-3.8,1.9-6.8,1.9h-3.4v-3.7h3.2
				c1.7,0,3-0.4,3.9-1.2c0.9-0.8,1.4-1.9,1.4-3.5v-8.2C651,104.5,651.1,104.2,651.5,103.9z M650.3,97.1c0-0.7,0.2-1.3,0.7-1.7
				c0.5-0.5,1.1-0.7,1.7-0.7c0.7,0,1.3,0.2,1.7,0.7c0.5,0.5,0.7,1.1,0.7,1.7c0,0.7-0.2,1.3-0.7,1.7s-1.1,0.7-1.7,0.7
				c-0.7,0-1.3-0.2-1.7-0.7C650.5,98.2,650.3,97.7,650.3,97.1z"/>
			<path class="st5" d="M665.5,120c0,0.4-0.1,0.7-0.4,1s-0.6,0.4-1,0.4h-2.5V92.9c0-0.4,0.1-0.7,0.4-1s0.6-0.4,1-0.4h2.5V120z"/>
			<path class="st5" d="M693.5,121.4h-4v0.4c0,2.1-0.2,3.9-0.6,5.2c-0.4,1.4-1,2.5-1.8,3.3s-1.7,1.4-2.9,1.7
				c-1.1,0.3-2.5,0.5-3.9,0.5c-0.6,0-1.3-0.1-2.1-0.2c-0.8-0.1-1.5-0.3-2.2-0.4c-0.4-0.1-0.8-0.3-1.1-0.5s-0.5-0.5-0.3-1l0.5-2.4
				c0.5,0.1,1,0.3,1.5,0.4s1.1,0.2,1.7,0.3c0.6,0.1,1.2,0.1,1.8,0.1c1.5,0,2.6-0.2,3.4-0.7s1.3-1.1,1.6-1.8c0.3-0.7,0.5-1.5,0.5-2.4
				s0-1.7,0-2.6h-5.5c-0.9,0-1.9-0.1-2.9-0.3c-1-0.2-2-0.7-3-1.3c-0.9-0.6-1.7-1.6-2.4-2.7c-0.7-1.2-1-2.8-1-4.8
				c0-1.6,0.3-3,0.8-4.3s1.2-2.3,2.2-3.1c0.9-0.8,2.1-1.5,3.4-1.9s2.8-0.6,4.3-0.6c1,0,2,0.1,3,0.2c0.9,0.1,1.8,0.3,2.6,0.5
				s1.5,0.4,2.3,0.6v14.1h4L693.5,121.4L693.5,121.4z M685.6,106.2c-1.4-0.4-2.6-0.5-3.7-0.5c-0.8,0-1.7,0-2.5,0.2s-1.6,0.5-2.3,1
				s-1.2,1.1-1.6,2c-0.4,0.8-0.6,1.9-0.6,3.1c0,2,0.5,3.4,1.6,4.4c1,0.9,2.4,1.4,4,1.4h5.1V106.2z"/>
			<path class="st5" d="M729,111.6c0,1.5-0.1,2.8-0.4,4s-0.7,2.2-1.4,3.1c-0.7,0.8-1.5,1.5-2.7,2c-1.1,0.5-2.5,0.7-4.2,0.8h-0.9
				c-0.4,0-0.8,0-1.3-0.1s-1-0.2-1.5-0.4c-0.5-0.2-1-0.4-1.5-0.7s-0.9-0.6-1.3-0.9c-0.4,1-1,1.9-1.9,2.5c-0.9,0.7-2.2,1-4,1
				c-0.6,0-1.3-0.1-2.2-0.2s-1.8-0.3-2.7-0.5s-1.9-0.4-3-0.7h-8.2v-3.7h4.7c-0.2-0.5-0.4-1.2-0.6-2.2s-0.3-2.2-0.3-3.5
				c0-1.4,0.3-2.8,0.8-3.9c0.5-1.2,1.2-2.2,2.2-3.1c0.9-0.8,2.1-1.5,3.4-2s2.9-0.7,4.6-0.7c0.8,0,1.7,0.1,2.6,0.2
				c0.9,0.1,1.8,0.3,2.6,0.5s1.6,0.4,2.5,0.6v12.5c0,0.1,0.2,0.2,0.4,0.3c0.2,0.2,0.5,0.3,1,0.5c0.4,0.2,0.9,0.3,1.5,0.5
				c0.6,0.1,1.4,0.2,2.2,0.2h0.4c1.9,0,3.2-0.4,4.1-1.2c0.9-0.8,1.3-2,1.3-3.5V92.8c0-0.4,0.1-0.7,0.4-1c0.2-0.3,0.5-0.4,0.9-0.4
				h2.5L729,111.6L729,111.6z M710.6,116.2v-9.6c-0.5-0.1-1-0.2-1.6-0.3c-0.6-0.1-1.4-0.2-2.3-0.2c-1.2,0-2.3,0.2-3.2,0.5
				c-0.9,0.4-1.6,0.8-2.2,1.4c-0.6,0.6-1,1.2-1.3,2s-0.4,1.5-0.4,2.3c0,0.9,0,1.6,0.1,2.3c0.1,0.7,0.2,1.3,0.3,1.8s0.3,0.9,0.4,1.3
				c0.7,0.2,1.4,0.4,2.1,0.6s1.3,0.3,2,0.5s1.2,0.3,1.7,0.3c1.4,0.3,2.4,0.2,3.2-0.3C710.2,118.4,710.6,117.5,710.6,116.2z"/>
			<path class="st5" d="M740,120c0,0.4-0.1,0.7-0.4,1s-0.6,0.4-1,0.4H736V92.9c0-0.4,0.1-0.7,0.4-1s0.6-0.4,1-0.4h2.5L740,120
				L740,120z"/>
			<path class="st5" d="M791.5,103.5v9c0,1.3-0.1,2.6-0.4,3.7s-0.7,2-1.4,2.8s-1.6,1.4-2.8,1.8s-2.7,0.6-4.5,0.6h-15.2
				c-1.9,0-3.4-0.2-4.7-0.7s-2.3-1.1-3.1-2c-0.8-0.8-1.4-1.8-1.7-2.8s-0.5-2.2-0.5-3.4c0-0.9,0-1.8,0.1-2.5s0.2-1.4,0.3-2
				s0.3-1.1,0.5-1.7c1.4,0.4,2.1,0.6,2.3,0.7c0.3,0.1,0.5,0.3,0.7,0.5c0.1,0.2,0.1,0.6,0,1.1c-0.1,0.6-0.2,1.1-0.3,1.5
				c-0.1,0.5-0.1,1.1-0.1,1.9c0,1.1,0.2,2,0.7,2.8c0.5,0.7,1.1,1.3,1.8,1.7c0.7,0.4,1.6,0.7,2.5,0.9c1,0.2,2,0.2,3,0.2h14.1
				c2,0,3.3-0.4,4-1.3s1-2.1,1-3.8v-7.7c0-0.4,0.1-0.7,0.4-1s0.6-0.4,1-0.4L791.5,103.5L791.5,103.5z M768.5,99.7
				c0-0.7,0.2-1.3,0.7-1.7c0.5-0.5,1.1-0.7,1.7-0.7c0.7,0,1.3,0.2,1.7,0.7s0.7,1.1,0.7,1.7s-0.2,1.3-0.7,1.7
				c-0.5,0.5-1.1,0.7-1.7,0.7c-0.7,0-1.3-0.2-1.7-0.7C768.8,101,768.5,100.4,768.5,99.7z M774.8,99.7c0-0.7,0.2-1.3,0.7-1.7
				s1.1-0.7,1.7-0.7c0.7,0,1.3,0.2,1.7,0.7c0.5,0.5,0.7,1.1,0.7,1.7s-0.2,1.3-0.7,1.7c-0.5,0.5-1.1,0.7-1.7,0.7
				c-0.7,0-1.3-0.2-1.7-0.7C775,101,774.8,100.4,774.8,99.7z"/>
			<path class="st5" d="M797,91.6h2.5c0.4,0,0.7,0.1,1,0.4s0.4,0.6,0.4,1v20.2c0,1.5,0.4,2.6,1.3,3.4c0.9,0.8,2.2,1.2,4.1,1.2h1.1
				v3.7h-1.1c-1.8,0-3.3-0.2-4.5-0.7s-2.1-1.1-2.8-2c-0.7-0.8-1.2-1.9-1.4-3.1c-0.3-1.2-0.4-2.6-0.4-4.1v-20H797z"/>
			<path class="st5" d="M820.3,102.4c0.8,0,1.7,0.1,2.6,0.2c0.9,0.1,1.8,0.3,2.6,0.5s1.7,0.4,2.5,0.6v12.2c0,0.8-0.1,1.7-0.2,2.5
				c-0.2,0.8-0.5,1.6-0.9,2.2c-0.5,0.7-1.1,1.2-1.9,1.6s-1.9,0.6-3.3,0.6c-0.6,0-1.3-0.1-2.2-0.2s-1.8-0.3-2.7-0.5s-1.9-0.5-2.9-0.7
				h-8.3v-3.7h4.8c-0.2-0.5-0.3-1.2-0.5-2.2s-0.3-2.2-0.3-3.5c0-1.4,0.3-2.8,0.8-3.9c0.5-1.2,1.2-2.2,2.2-3.1c0.9-0.8,2.1-1.5,3.4-2
				C817.1,102.6,818.6,102.4,820.3,102.4z M824.3,106.6c-0.5-0.1-1-0.2-1.6-0.3c-0.6-0.1-1.4-0.2-2.3-0.2c-1.2,0-2.3,0.2-3.2,0.5
				c-0.9,0.4-1.6,0.8-2.2,1.4c-0.6,0.6-1,1.2-1.3,2s-0.4,1.5-0.4,2.3c0,0.9,0,1.6,0.1,2.3c0.1,0.7,0.2,1.3,0.3,1.8s0.3,0.9,0.4,1.3
				c0.7,0.2,1.4,0.4,2.1,0.6s1.3,0.3,2,0.5s1.2,0.3,1.8,0.3c1.4,0.3,2.4,0.2,3.2-0.3c0.8-0.4,1.1-1.3,1.1-2.7L824.3,106.6
				L824.3,106.6z"/>
			<path class="st5" d="M833.1,118.7c0-0.7,0.3-1,0.9-1h15.3V114c0-1.3-0.1-2.4-0.4-3.2c-0.3-0.8-0.7-1.6-1.2-2.1
				c-0.6-0.6-1.3-1-2.3-1.4c-0.9-0.4-1.9-0.7-3-0.9c-1-0.2-2-0.4-2.8-0.6s-1.6-0.3-2.2-0.5c-1.2-0.2-1.7-0.8-1.5-1.7l0.5-2.2
				c1.1,0.2,2.2,0.4,3.1,0.6c0.9,0.2,2.1,0.4,3.5,0.8c1.5,0.3,2.9,0.8,4.3,1.5c1.4,0.7,2.5,1.5,3.4,2.4c0.8,0.9,1.4,1.9,1.7,3
				s0.5,2.2,0.5,3.4v2.9c0.3,0.3,0.7,0.6,1.1,0.8c0.5,0.2,1,0.4,1.6,0.6s1.4,0.2,2.4,0.2h1v3.7h-1c-0.8,0-1.7-0.2-2.7-0.5
				c-1.1-0.3-2-0.8-2.8-1.6c-0.3,0.7-0.7,1.2-1.4,1.5c-0.7,0.4-1.7,0.5-3.1,0.5h-14.9L833.1,118.7L833.1,118.7z"/>
			<path class="st5" d="M882.5,119.4c-0.3,0.7-0.7,1.2-1.3,1.5s-1.5,0.5-2.6,0.5h-21v-3.7H879v-4.1c0-1.2,0-2.3-0.1-3.3
				s-0.4-1.8-0.8-2.4c-0.4-0.6-1.1-1.2-2.1-1.5c-1-0.4-2.3-0.5-4-0.5c-1.5,0-3,0.1-4.4,0.3c-1.4,0.2-2.5,0.4-3.3,0.6s-1.3,0-1.4-0.6
				l-0.6-2.5c0.9-0.2,1.8-0.4,2.8-0.6s2.1-0.3,3.3-0.5c1.2-0.1,2.4-0.2,3.8-0.2c1.9,0,3.6,0.2,4.9,0.6s2.4,1,3.3,1.8
				c0.9,0.8,1.5,1.9,1.8,3.2c0.4,1.3,0.6,2.9,0.6,4.7v3.5c0.3,0.3,0.7,0.5,1.1,0.8c0.5,0.2,1,0.4,1.7,0.6s1.5,0.2,2.4,0.2h0.9v3.7
				H888c-0.8,0-1.7-0.2-2.8-0.5C884.1,120.6,883.2,120.1,882.5,119.4z M868.3,95.8c0-0.7,0.2-1.3,0.7-1.7c0.5-0.5,1.1-0.7,1.7-0.7
				c0.6,0,1.3,0.2,1.7,0.7s0.7,1.1,0.7,1.7c0,0.7-0.2,1.3-0.7,1.7c-0.5,0.5-1.1,0.7-1.7,0.7c-0.6,0-1.3-0.2-1.7-0.7
				C868.5,97.1,868.3,96.5,868.3,95.8z"/>
			<path class="st5" d="M898.6,111.6c0,1.5-0.1,2.9-0.4,4.1s-0.8,2.2-1.4,3.1c-0.7,0.9-1.6,1.5-2.8,2s-2.7,0.7-4.5,0.7h-2v-3.7h2
				c1.9,0,3.2-0.4,4.1-1.2c0.9-0.8,1.3-2,1.3-3.5V93c0-0.4,0.1-0.7,0.4-1c0.2-0.3,0.5-0.4,0.9-0.4h2.5L898.6,111.6L898.6,111.6z"/>
			<path class="st5" d="M941.2,119.4c-0.3,0.7-0.7,1.2-1.3,1.5s-1.5,0.5-2.5,0.5h-11.8c-0.8,0-1.5,0-2.1,0.1
				c-0.7,0.1-1.2,0.3-1.7,0.6c-0.5,0.3-0.9,0.8-1.2,1.3s-0.4,1.3-0.4,2.2c0,1.3,0.3,2.4,0.8,3.3c0.6,0.9,1.2,1.8,2,2.5
				s1.6,1.3,2.4,1.8c0.8,0.5,1.5,0.9,2.1,1.2c0.4,0.3,0.5,0.5,0.5,0.8s-0.1,0.5-0.2,0.8c-0.1,0.1-0.4,0.7-1.1,1.8
				c-1.9-0.8-3.4-1.7-4.4-2.6s-1.9-1.6-2.5-2.3s-1.1-1.3-1.6-2.1s-0.8-1.6-1.1-2.5c-0.3-0.9-0.4-1.9-0.4-2.9c0-1.8,0.3-3.2,0.9-4.2
				c0.6-1,1.4-1.8,2.3-2.3c0.9-0.5,1.8-0.9,2.8-1s1.8-0.2,2.5-0.2h12.7v-4.1c0-1.2,0-2.3-0.1-3.3s-0.4-1.8-0.8-2.4
				c-0.4-0.7-1.1-1.2-2.1-1.5c-1-0.4-2.3-0.5-4-0.5c-1.5,0-3,0.1-4.4,0.3c-1.4,0.2-2.5,0.4-3.3,0.6s-1.3,0-1.4-0.6
				c-0.1-0.2-0.3-1-0.6-2.5c0.9-0.2,1.9-0.4,2.9-0.6s2.1-0.3,3.3-0.5c1.2-0.1,2.4-0.2,3.8-0.2c1.9,0,3.5,0.2,4.9,0.6s2.5,1,3.3,1.8
				s1.4,1.9,1.8,3.2c0.4,1.3,0.6,2.9,0.6,4.7v3.5c0.3,0.3,0.7,0.5,1.1,0.8c0.5,0.2,1,0.4,1.6,0.6s1.4,0.2,2.4,0.2h1v3.7h-1
				c-0.8,0-1.7-0.2-2.7-0.5C942.9,120.6,941.9,120.1,941.2,119.4z M928.6,127.5c0-0.7,0.2-1.3,0.7-1.7c0.5-0.5,1.1-0.7,1.7-0.7
				c0.7,0,1.3,0.2,1.7,0.7c0.5,0.5,0.7,1.1,0.7,1.7c0,0.6-0.2,1.3-0.7,1.7s-1.1,0.7-1.7,0.7c-0.7,0-1.3-0.2-1.7-0.7
				C928.9,128.8,928.6,128.2,928.6,127.5z"/>
			<path class="st5" d="M952.5,103.9c0.3-0.3,0.6-0.4,1-0.4h2.5v12.7c0.3,0.3,0.7,0.5,1.1,0.8c0.5,0.2,1,0.4,1.7,0.5
				s1.5,0.2,2.4,0.2h0.9v3.7h-0.9c-0.4,0-0.9,0-1.4-0.1s-1.1-0.2-1.6-0.4s-1.1-0.4-1.6-0.7s-1-0.7-1.3-1.1c-0.4,0.7-1.1,1.2-2,1.7
				c-1,0.5-2.1,0.7-3.6,0.7h-3.6v-3.7h2.4c1.4,0,2.3-0.3,2.9-1c0.6-0.7,0.8-1.5,0.8-2.6v-9.3C952.1,104.5,952.3,104.2,952.5,103.9z
				 M948.6,126.8c0-0.7,0.2-1.3,0.7-1.7c0.5-0.5,1.1-0.7,1.7-0.7c0.7,0,1.3,0.2,1.7,0.7c0.5,0.5,0.7,1.1,0.7,1.7
				c0,0.7-0.2,1.3-0.7,1.7c-0.5,0.5-1.1,0.7-1.7,0.7c-0.7,0-1.3-0.2-1.7-0.7S948.6,127.4,948.6,126.8z M954.8,126.8
				c0-0.7,0.2-1.3,0.7-1.7c0.5-0.5,1.1-0.7,1.7-0.7c0.7,0,1.3,0.2,1.7,0.7c0.5,0.5,0.7,1.1,0.7,1.7c0,0.7-0.2,1.3-0.7,1.7
				s-1.1,0.7-1.7,0.7c-0.7,0-1.3-0.2-1.7-0.7S954.8,127.4,954.8,126.8z"/>
			<path class="st5" d="M967.3,92c0.2-0.3,0.5-0.4,0.9-0.4h2.6v24.6c0.3,0.3,0.7,0.5,1.1,0.8c0.5,0.2,1,0.4,1.6,0.6s1.4,0.2,2.4,0.2
				h0.9v3.7h-0.9c-0.8,0-1.9-0.2-3-0.6c-1.2-0.4-2.1-1-2.9-1.9c-0.4,0.7-1.1,1.2-2,1.7s-2.2,0.8-3.6,0.8h-3.7v-3.7h2.6
				c1.4,0,2.3-0.3,2.9-1c0.6-0.7,0.8-1.5,0.8-2.6V93C966.9,92.6,967.1,92.2,967.3,92z"/>
			<path class="st5" d="M999.8,119.4c-0.3,0.7-0.7,1.2-1.3,1.5s-1.5,0.5-2.6,0.5h-21v-3.7h21.5v-4.1c0-1.2,0-2.3-0.1-3.3
				s-0.4-1.8-0.8-2.4s-1.1-1.2-2.1-1.5c-1-0.4-2.3-0.5-4-0.5c-1.5,0-3,0.1-4.4,0.3c-1.4,0.2-2.5,0.4-3.3,0.6s-1.3,0-1.4-0.6
				l-0.6-2.5c0.9-0.2,1.8-0.4,2.8-0.6s2.1-0.3,3.3-0.5c1.2-0.1,2.4-0.2,3.8-0.2c1.9,0,3.6,0.2,4.9,0.6c1.3,0.4,2.4,1,3.3,1.8
				s1.5,1.9,1.8,3.2c0.4,1.3,0.6,2.9,0.6,4.7v3.5c0.3,0.3,0.7,0.5,1.1,0.8c0.5,0.2,1,0.4,1.7,0.6s1.5,0.2,2.4,0.2h0.9v3.7h-0.9
				c-0.8,0-1.7-0.2-2.8-0.5C1001.4,120.6,1000.5,120.1,999.8,119.4z M985.8,95.8c0-0.7,0.2-1.3,0.7-1.7c0.5-0.5,1.1-0.7,1.7-0.7
				s1.3,0.2,1.7,0.7s0.7,1.1,0.7,1.7c0,0.7-0.2,1.3-0.7,1.7c-0.5,0.5-1.1,0.7-1.7,0.7s-1.3-0.2-1.7-0.7
				C985.9,97.1,985.8,96.5,985.8,95.8z"/>
			<path class="st5" d="M1016,111.6c0,1.5-0.1,2.9-0.4,4.1c-0.3,1.2-0.8,2.2-1.4,3.1c-0.7,0.9-1.6,1.5-2.8,2s-2.7,0.7-4.5,0.7h-2
				v-3.7h2c1.9,0,3.2-0.4,4.1-1.2c0.9-0.8,1.3-2,1.3-3.5V93c0-0.4,0.1-0.7,0.4-1c0.2-0.3,0.5-0.4,0.9-0.4h2.5L1016,111.6L1016,111.6
				z"/>
			<path class="st5" d="M1026.8,120c0,0.4-0.1,0.7-0.4,1s-0.6,0.4-1,0.4h-2.5V92.9c0-0.4,0.1-0.7,0.4-1c0.3-0.3,0.6-0.4,1-0.4h2.5
				V120z"/>
			<path class="st5" d="M1049.4,105c0-0.4,0.1-0.7,0.4-1s0.6-0.4,1-0.4h2.5v22.2c0,1.5-0.2,2.8-0.7,3.8s-1.1,1.7-2,2.2
				s-1.9,0.7-3.1,0.8c-1.2,0-2.5-0.2-3.9-0.6c-0.5-0.2-0.8-0.3-1.2-0.5c-0.3-0.2-0.4-0.5-0.3-1l0.5-2.3c0.8,0.4,1.5,0.6,2.1,0.8
				c0.6,0.1,1.1,0.2,1.4,0.2c1.2,0,2-0.3,2.5-0.9s0.7-1.5,0.7-2.8L1049.4,105L1049.4,105z"/>
			<path class="st5" d="M1058.4,91.6h2.5c0.4,0,0.7,0.1,1,0.4s0.4,0.6,0.4,1v20.2c0,1.5,0.4,2.6,1.3,3.4s2.2,1.2,4.1,1.2h1.1v3.7
				h-1.1c-1.8,0-3.3-0.2-4.5-0.7s-2.1-1.1-2.8-2c-0.7-0.8-1.2-1.9-1.4-3.1c-0.3-1.2-0.4-2.6-0.4-4.1v-20H1058.4z"/>
			<path class="st5" d="M1091.8,119.4c-0.3,0.7-0.7,1.2-1.3,1.5s-1.5,0.5-2.6,0.5h-21v-3.7h21.4v-4.1c0-1.2,0-2.3-0.1-3.3
				s-0.4-1.8-0.8-2.4s-1.1-1.2-2.1-1.5c-1-0.4-2.3-0.5-4-0.5c-1.5,0-3,0.1-4.4,0.3c-1.4,0.2-2.5,0.4-3.3,0.6s-1.3,0-1.4-0.6
				l-0.6-2.5c0.9-0.2,1.8-0.4,2.8-0.6s2.1-0.3,3.3-0.5c1.2-0.1,2.4-0.2,3.8-0.2c1.9,0,3.6,0.2,4.9,0.6s2.4,1,3.3,1.8
				s1.5,1.9,1.8,3.2c0.4,1.3,0.6,2.9,0.6,4.7v3.5c0.3,0.3,0.7,0.5,1.1,0.8c0.5,0.2,1,0.4,1.7,0.6s1.5,0.2,2.4,0.2h0.9v3.7h-0.9
				c-0.8,0-1.7-0.2-2.8-0.5C1093.6,120.6,1092.7,120.1,1091.8,119.4z"/>
			<path class="st5" d="M1105.8,103.9c0.3-0.3,0.6-0.4,1-0.4h2.5v10.2c0,2.6-0.8,4.5-2.3,5.8c-1.5,1.2-3.8,1.9-6.8,1.9h-3.4v-3.7
				h3.2c1.7,0,3-0.4,3.9-1.2c0.9-0.8,1.4-1.9,1.4-3.5v-8.2C1105.4,104.5,1105.6,104.2,1105.8,103.9z M1102.4,126.7
				c0-0.7,0.2-1.3,0.7-1.7c0.5-0.5,1.1-0.7,1.7-0.7c0.7,0,1.3,0.2,1.7,0.7c0.5,0.5,0.7,1.1,0.7,1.7c0,0.7-0.2,1.3-0.7,1.7
				c-0.5,0.5-1.1,0.7-1.7,0.7c-0.7,0-1.3-0.2-1.7-0.7S1102.4,127.2,1102.4,126.7z"/>
			<path class="st5" d="M1149.2,117.7v3.7h-2.5c-0.5,0-1-0.1-1.4-0.3c-0.4-0.2-0.8-0.4-1.2-0.6c-0.3-0.2-0.6-0.5-0.9-0.8
				c-0.2-0.3-0.4-0.5-0.5-0.7c-0.2,0.2-0.5,0.4-0.8,0.8c-0.3,0.3-0.8,0.6-1.3,0.9s-1.2,0.5-1.9,0.7c-0.7,0.2-1.6,0.3-2.5,0.3
				c-1,0-2-0.1-3.1-0.4c-1-0.3-2-0.8-2.9-1.5c-0.9-0.8-1.6-1.8-2.1-3.2c-0.6-1.4-0.8-3.1-0.8-5.3c0-1.3,0.2-2.6,0.5-3.7
				c0.3-1.2,0.9-2.2,1.6-3c0.7-0.9,1.7-1.5,2.8-2c1.2-0.5,2.6-0.7,4.3-0.7c1.1,0,2.3,0.1,3.3,0.2c1.1,0.1,2.1,0.3,3,0.4
				c0.9,0.2,1.8,0.4,2.6,0.6v12.8c0,0.7,0.2,1.1,0.6,1.4s0.9,0.5,1.4,0.5L1149.2,117.7L1149.2,117.7z M1141.7,105.8
				c-0.9-0.2-1.7-0.4-2.6-0.4c-0.9-0.1-1.6-0.1-2.1-0.1c-0.8,0-1.6,0.1-2.3,0.2c-0.7,0.2-1.3,0.5-1.8,1s-0.9,1.1-1.2,1.9
				c-0.3,0.8-0.4,1.8-0.4,3.1c0,2.4,0.5,4.1,1.4,5.1s2.3,1.6,4,1.6c0.9,0,1.7-0.1,2.3-0.3c0.6-0.2,1.2-0.4,1.6-0.7
				c0.4-0.3,0.8-0.6,1.2-1L1141.7,105.8L1141.7,105.8z M1132.4,95.4c0-0.7,0.2-1.3,0.7-1.7c0.5-0.5,1.1-0.7,1.7-0.7
				c0.7,0,1.3,0.2,1.7,0.7c0.5,0.5,0.7,1.1,0.7,1.7c0,0.7-0.2,1.3-0.7,1.7c-0.5,0.5-1.1,0.7-1.7,0.7c-0.7,0-1.3-0.2-1.7-0.7
				S1132.4,96.1,1132.4,95.4z M1138.7,95.4c0-0.7,0.2-1.3,0.7-1.7c0.5-0.5,1.1-0.7,1.7-0.7c0.7,0,1.3,0.2,1.7,0.7
				c0.5,0.5,0.7,1.1,0.7,1.7c0,0.7-0.2,1.3-0.7,1.7s-1.1,0.7-1.7,0.7c-0.7,0-1.3-0.2-1.7-0.7C1138.9,96.7,1138.7,96.1,1138.7,95.4z"
				/>
			<path class="st5" d="M1147.6,121.4v-3.7h21.6v-2.2c0-1-0.1-2-0.3-3c-0.2-1-0.6-1.8-1.2-2.5s-1.5-1.3-2.6-1.8
				c-1.1-0.4-2.6-0.7-4.5-0.7h-6.4c-0.4,0-0.6-0.1-0.8-0.2c-0.2-0.1-0.4-0.3-0.6-0.6l-1.5-2.5l16.4-12.7l2,2.2
				c0.2,0.2,0.2,0.4,0.2,0.7c0,0.3-0.1,0.5-0.4,0.7c0,0-4,3-11.9,9h4.3c2,0,3.7,0.3,5.1,0.8s2.5,1.3,3.4,2.3s1.5,2.2,1.9,3.7
				s0.6,3.1,0.6,4.9v4c0,0.5-0.1,0.8-0.3,1.1c-0.2,0.3-0.5,0.4-0.8,0.4L1147.6,121.4L1147.6,121.4L1147.6,121.4z"/>
			<path class="st5" d="M1182.7,105c0-0.4,0.1-0.7,0.4-1s0.6-0.4,1-0.4h2.5v12.7c0.1,0.1,0.2,0.2,0.4,0.4c0.2,0.2,0.6,0.4,1,0.5
				c0.4,0.2,0.9,0.3,1.5,0.4s1.3,0.2,2.1,0.2h1v3.7h-1c-0.7,0-1.5-0.1-2.5-0.4s-1.8-0.7-2.6-1.3v6c0,1.5-0.2,2.8-0.7,3.8
				s-1.1,1.7-2,2.2s-1.9,0.7-3.1,0.8c-1.2,0-2.5-0.2-3.9-0.6c-0.5-0.2-0.8-0.3-1.2-0.5c-0.3-0.2-0.4-0.5-0.3-1l0.5-2.3
				c0.7,0.3,1.4,0.5,2,0.7c0.7,0.2,1.2,0.3,1.5,0.3c1.2,0,2-0.3,2.5-0.9s0.7-1.5,0.7-2.8V105H1182.7z"/>
			<path class="st5" d="M1219.1,121.4c-0.9,0-1.7-0.1-2.5-0.4s-1.3-0.5-1.9-0.9c-0.5-0.3-0.9-0.6-1.2-1c-0.3-0.3-0.5-0.5-0.6-0.7
				c-0.1,0.1-0.3,0.3-0.5,0.6c-0.2,0.3-0.6,0.6-1.1,0.9s-1.1,0.6-1.8,0.9c-0.7,0.3-1.6,0.4-2.6,0.5h-1c-0.4,0-0.9,0-1.4-0.1
				s-1.1-0.2-1.6-0.4s-1.1-0.4-1.6-0.8c-0.5-0.3-1-0.7-1.3-1.1c-0.4,0.7-1.1,1.2-2,1.7s-2.2,0.7-3.6,0.7h-3.3v-3.7h2.2
				c1.4,0,2.3-0.3,2.9-1s0.8-1.5,0.8-2.6v-5.9c0-0.4,0.1-0.7,0.4-1s0.6-0.4,1-0.4h2.4v9.4c0.3,0.3,0.7,0.5,1.1,0.8
				c0.5,0.2,1,0.4,1.6,0.5s1.4,0.2,2.4,0.2c0.5,0,0.9,0,1.4-0.1s1-0.2,1.4-0.4c0.4-0.2,0.8-0.5,1.1-0.9c0.3-0.4,0.4-1,0.4-1.6v-6.4
				c0-0.4,0.1-0.7,0.4-1s0.6-0.4,1-0.4h2.5v8.9c0.7,0.8,1.5,1.4,2.4,1.6s1.7,0.3,2.5,0.3c2,0,3.3-0.4,4-1.3s1-2.1,1-3.8v-7.6
				c0-0.4,0.1-0.7,0.4-1s0.6-0.4,1-0.4h2.5v9c0,1.3-0.1,2.6-0.4,3.7s-0.7,2-1.4,2.8c-0.7,0.8-1.6,1.4-2.7,1.8
				C1222.3,121.2,1220.8,121.4,1219.1,121.4z M1207.3,98.7c0-0.7,0.2-1.3,0.7-1.7c0.5-0.5,1.1-0.7,1.7-0.7c0.7,0,1.3,0.2,1.7,0.7
				c0.5,0.5,0.7,1.1,0.7,1.7c0,0.7-0.2,1.3-0.7,1.7c-0.5,0.5-1.1,0.7-1.7,0.7c-0.7,0-1.3-0.2-1.7-0.7S1207.3,99.4,1207.3,98.7z
				 M1210.4,92.7c0-0.7,0.2-1.3,0.7-1.7c0.5-0.5,1.1-0.7,1.7-0.7c0.7,0,1.3,0.2,1.7,0.7s0.7,1.1,0.7,1.7c0,0.7-0.2,1.3-0.7,1.7
				c-0.5,0.5-1.1,0.7-1.7,0.7c-0.7,0-1.3-0.2-1.7-0.7C1210.7,94,1210.4,93.4,1210.4,92.7z M1213.6,98.7c0-0.7,0.2-1.3,0.7-1.7
				c0.5-0.5,1.1-0.7,1.7-0.7c0.7,0,1.3,0.2,1.7,0.7c0.5,0.5,0.7,1.1,0.7,1.7c0,0.7-0.2,1.3-0.7,1.7s-1.1,0.7-1.7,0.7
				c-0.7,0-1.3-0.2-1.7-0.7C1213.8,100,1213.6,99.4,1213.6,98.7z"/>
		</g>
	</g>
</g>
<g>
	<g>
		<g>
			<path class="st6" d="M474.4,60.1c-2.8,0.9-8.3,2.4-14.8,2.4c-7.3,0-13.3-1.7-18.1-5.9c-4.2-3.7-6.7-9.7-6.7-16.6
				c0.1-13.3,10-23,26.2-23c5.6,0,10,1.1,12,2.1l-1.5,4.7c-2.6-1.1-5.8-1.9-10.7-1.9c-11.8,0-19.4,6.8-19.4,17.9
				c0,11.3,7.4,18,18.6,18c4.1,0,6.9-0.5,8.3-1.2V43.3h-9.8v-4.6h15.9V60.1z"/>
			<path class="st6" d="M492.4,17.4v26.4c0,10,4.8,14.2,11.3,14.2c7.2,0,11.8-4.4,11.8-14.2V17.4h6.3v26c0,13.7-7.8,19.3-18.3,19.3
				c-9.9,0-17.3-5.2-17.3-19.1V17.4H492.4z"/>
			<path class="st6" d="M534.9,17.4h6.2v39.8h20.6V62h-26.9V17.4z"/>
			<path class="st6" d="M571,17.4h26v4.8h-19.8v14.8h18.3v4.8h-18.3V62H571V17.4z"/>
			<path class="st6" d="M624.8,55c2.8,1.6,6.9,2.9,11.2,2.9c6.4,0,10.1-3.1,10.1-7.6c0-4.2-2.6-6.6-9.1-8.9
				c-7.9-2.6-12.8-6.4-12.8-12.6c0-6.9,6.2-12.1,15.6-12.1c4.9,0,8.5,1.1,10.7,2.2l-1.7,4.7c-1.6-0.8-4.8-2.1-9.2-2.1
				c-6.6,0-9.1,3.6-9.1,6.7c0,4.2,2.9,6.2,9.6,8.6c8.2,2.9,12.3,6.6,12.3,13.1c0,6.9-5.5,12.8-16.9,12.8c-4.7,0-9.7-1.3-12.3-2.8
				L624.8,55z"/>
			<path class="st6" d="M688.3,41.1h-18.8v16.1h20.9V62h-27.2V17.4h26.1v4.8h-19.9v14.1h18.8V41.1z"/>
			<path class="st6" d="M708.7,48l-5,14h-6.5l16.4-44.6h7.5L737.6,62H731l-5.2-14H708.7z M724.5,43.5l-4.7-12.8
				c-1.1-2.9-1.8-5.6-2.5-8.1h-0.1c-0.7,2.6-1.5,5.4-2.4,8.1L710,43.5H724.5z"/>
			<path class="st6" d="M746.2,55c2.8,1.6,6.9,2.9,11.2,2.9c6.4,0,10.1-3.1,10.1-7.6c0-4.2-2.6-6.6-9.1-8.9
				c-7.9-2.6-12.8-6.4-12.8-12.6c0-6.9,6.2-12.1,15.6-12.1c4.9,0,8.5,1.1,10.7,2.2l-1.7,4.7c-1.6-0.8-4.8-2.1-9.2-2.1
				c-6.6,0-9.1,3.6-9.1,6.7c0,4.2,2.9,6.2,9.6,8.6c8.2,2.9,12.3,6.6,12.3,13.1c0,6.9-5.5,12.8-16.9,12.8c-4.7,0-9.7-1.3-12.3-2.8
				L746.2,55z"/>
			<path class="st6" d="M802.2,17.4h26v4.8h-19.8v14.8h18.3v4.8h-18.3V62h-6.2V17.4z"/>
			<path class="st6" d="M880.7,39.3c0,15.4-10.1,23.5-22.4,23.5c-12.8,0-21.7-9.1-21.7-22.6c0-14.2,9.5-23.4,22.4-23.4
				C872.1,16.7,880.7,26,880.7,39.3z M843.2,40c0,9.5,5.6,18.1,15.4,18.1c9.9,0,15.5-8.4,15.5-18.5c0-8.9-5-18.1-15.4-18.1
				C848.3,21.4,843.2,30.2,843.2,40z"/>
			<path class="st6" d="M891.1,18c3.2-0.6,7.7-0.9,12-0.9c6.7,0,11,1.1,14,3.6c2.4,2,3.8,5,3.8,8.5c0,5.9-4,9.8-9.1,11.4v0.2
				c3.7,1.2,6,4.4,7.1,9c1.6,6.2,2.7,10.5,3.7,12.2h-6.5c-0.8-1.3-1.9-5.1-3.2-10.7c-1.4-6.2-4-8.5-9.7-8.7h-5.9V62h-6.2V18z
				 M897.3,38.4h6.4c6.7,0,10.9-3.4,10.9-8.5c0-5.8-4.5-8.3-11.1-8.3c-3,0-5.2,0.3-6.2,0.5V38.4z"/>
			<path class="st6" d="M949.4,18c3-0.5,7-0.9,12-0.9c6.2,0,10.7,1.3,13.5,3.7c2.7,2.1,4.2,5.4,4.2,9.3c0,4-1.3,7.2-3.7,9.5
				c-3.3,3.2-8.7,4.9-14.8,4.9c-1.9,0-3.6-0.1-5-0.4V62h-6.2V18z M955.6,39.5c1.4,0.3,3.1,0.5,5.2,0.5c7.5,0,12.1-3.4,12.1-9.5
				c0-5.9-4.5-8.7-11.4-8.7c-2.7,0-4.8,0.2-5.9,0.5V39.5z"/>
			<path class="st6" d="M996.1,17.4V62h-6.2V17.4H996.1z"/>
			<path class="st6" d="M1009.3,18c3-0.5,7-0.9,12-0.9c6.2,0,10.7,1.3,13.5,3.7c2.7,2.1,4.2,5.4,4.2,9.3c0,4-1.3,7.2-3.7,9.5
				c-3.3,3.2-8.7,4.9-14.8,4.9c-1.9,0-3.6-0.1-5-0.4V62h-6.2V18z M1015.5,39.5c1.4,0.3,3.1,0.5,5.2,0.5c7.5,0,12.1-3.4,12.1-9.5
				c0-5.9-4.5-8.7-11.4-8.7c-2.7,0-4.8,0.2-5.9,0.5V39.5z"/>
			<path class="st6" d="M1074.7,41.1h-18.8v16.1h20.9V62h-27.2V17.4h26.1v4.8h-19.9v14.1h18.8V41.1z"/>
			<path class="st6" d="M1086.4,55c2.8,1.6,6.9,2.9,11.2,2.9c6.4,0,10.1-3.1,10.1-7.6c0-4.2-2.6-6.6-9.1-8.9
				c-7.9-2.6-12.8-6.4-12.8-12.6c0-6.9,6.2-12.1,15.6-12.1c4.9,0,8.5,1.1,10.7,2.2l-1.7,4.7c-1.6-0.8-4.8-2.1-9.2-2.1
				c-6.6,0-9.1,3.6-9.1,6.7c0,4.2,2.9,6.2,9.6,8.6c8.2,2.9,12.3,6.6,12.3,13.1c0,6.9-5.5,12.8-16.9,12.8c-4.7,0-9.7-1.3-12.3-2.8
				L1086.4,55z"/>
		</g>
	</g>
	<g>
		<g>
			<path class="st7" d="M481,100.8c0.4-0.4,0.9-0.6,1.4-0.6h3.5v18.3c0.4,0.4,1,0.8,1.6,1.1c0.7,0.3,1.5,0.6,2.4,0.8
				c0.9,0.2,2.1,0.4,3.4,0.4h1.4v5.3h-1.4c-0.6,0-1.2-0.1-2-0.2c-0.8-0.1-1.6-0.3-2.3-0.6c-0.8-0.3-1.5-0.6-2.3-1.1
				c-0.7-0.4-1.4-1-2-1.7c-0.6,0.9-1.5,1.8-2.9,2.5c-1.4,0.7-3.1,1.1-5.1,1.1h-26.1c-2.7,0-5-0.4-6.9-1.1c-1.9-0.7-3.4-1.7-4.6-2.8
				c-1.2-1.2-2-2.6-2.5-4.1c-0.5-1.6-0.8-3.2-0.8-4.9c0-1.3,0.1-2.5,0.2-3.7c0.1-1.1,0.3-2.1,0.5-2.9c0.2-0.9,0.4-1.7,0.8-2.4
				c1.9,0.6,3,0.9,3.3,1c0.5,0.2,0.9,0.5,1,0.8c0.2,0.3,0.2,0.9,0,1.6c-0.2,0.8-0.4,1.5-0.5,2.2c-0.1,0.7-0.2,1.6-0.2,2.8
				c0,1.6,0.3,2.9,1,4c0.7,1.1,1.5,1.9,2.6,2.5c1.1,0.6,2.3,1,3.7,1.3c1.4,0.2,2.8,0.4,4.3,0.4H475c2,0,3.4-0.5,4.2-1.4
				c0.8-0.9,1.2-2.2,1.2-3.7v-13.5C480.4,101.7,480.6,101.2,481,100.8z M457.3,133.7c0-1,0.3-1.8,1-2.5c0.7-0.7,1.5-1,2.5-1
				s1.8,0.3,2.5,1c0.7,0.7,1,1.5,1,2.5c0,1-0.3,1.8-1,2.5c-0.7,0.7-1.5,1-2.5,1s-1.8-0.3-2.5-1C457.7,135.5,457.3,134.7,457.3,133.7
				z"/>
			<path class="st7" d="M502,100.8c0.4-0.4,0.9-0.6,1.4-0.6h3.5v18.4c0.4,0.4,1,0.8,1.6,1.1c0.7,0.3,1.5,0.6,2.4,0.8
				c0.9,0.2,2.1,0.3,3.5,0.3h1.3v5.3h-1.3c-0.6,0-1.2-0.1-2-0.2c-0.8-0.1-1.6-0.3-2.3-0.6c-0.8-0.3-1.5-0.6-2.3-1.1
				c-0.8-0.4-1.4-1-1.9-1.6c-0.6,0.9-1.5,1.8-2.9,2.4c-1.4,0.7-3.1,1-5.1,1h-5.2v-5.3h3.4c2,0,3.4-0.5,4.2-1.5
				c0.8-1,1.2-2.2,1.2-3.7v-13.4C501.4,101.6,501.6,101.1,502,100.8z M496.2,133.8c0-1,0.3-1.8,1-2.5c0.7-0.7,1.5-1,2.5-1
				s1.8,0.3,2.5,1c0.7,0.7,1,1.5,1,2.5c0,1-0.3,1.8-1,2.5c-0.7,0.7-1.5,1-2.5,1s-1.8-0.3-2.5-1C496.6,135.6,496.2,134.8,496.2,133.8
				z M505.3,133.8c0-1,0.3-1.8,1-2.5c0.7-0.7,1.5-1,2.5-1s1.8,0.3,2.5,1c0.7,0.7,1,1.5,1,2.5c0,1-0.3,1.8-1,2.5
				c-0.7,0.7-1.5,1-2.5,1s-1.8-0.3-2.5-1C505.7,135.6,505.3,134.8,505.3,133.8z"/>
			<path class="st7" d="M526.7,100.8c0.4-0.4,0.9-0.6,1.4-0.6h3.5V115c0,3.8-1.1,6.6-3.3,8.4c-2.2,1.8-5.4,2.7-9.8,2.7h-4.9v-5.3
				h4.7c2.4,0,4.3-0.6,5.7-1.7c1.4-1.1,2.1-2.8,2.1-5v-11.8C526.1,101.6,526.3,101.1,526.7,100.8z M521.8,133.7c0-1,0.3-1.8,1-2.5
				c0.7-0.7,1.5-1,2.5-1s1.8,0.3,2.5,1c0.7,0.7,1,1.5,1,2.5c0,1-0.3,1.8-1,2.5c-0.7,0.7-1.5,1-2.5,1s-1.8-0.3-2.5-1
				C522.1,135.5,521.8,134.7,521.8,133.7z"/>
			<path class="st7" d="M540.6,82.9h3.5c0.5,0,1,0.2,1.4,0.6c0.4,0.4,0.6,0.9,0.6,1.4v29.2c0,2.2,0.6,3.8,1.9,5
				c1.3,1.1,3.2,1.7,5.9,1.7h1.6v5.3H554c-2.6,0-4.8-0.3-6.6-1c-1.7-0.7-3.1-1.6-4.1-2.8c-1-1.2-1.7-2.7-2.1-4.5
				c-0.4-1.7-0.6-3.7-0.6-5.9V82.9z"/>
			<path class="st7" d="M566,100.8c0.4-0.4,0.9-0.6,1.4-0.6h3.5V115c0,3.8-1.1,6.6-3.3,8.4c-2.2,1.8-5.4,2.7-9.8,2.7H553v-5.3h4.7
				c2.4,0,4.3-0.6,5.7-1.7c1.4-1.1,2.1-2.8,2.1-5v-11.8C565.4,101.6,565.6,101.1,566,100.8z M564.5,90.8c0-1,0.3-1.8,1-2.5
				c0.7-0.7,1.5-1,2.5-1s1.8,0.3,2.5,1c0.7,0.7,1,1.5,1,2.5c0,1-0.3,1.8-1,2.5c-0.7,0.7-1.5,1-2.5,1s-1.8-0.3-2.5-1
				C564.8,92.7,564.5,91.8,564.5,90.8z"/>
			<path class="st7" d="M577.9,123c0-0.5,0.1-1,0.4-1.5c0.2-0.5,0.6-0.7,1.2-0.7h12.3V98.1c0-0.6,0.2-1,0.5-1.4
				c0.4-0.4,0.8-0.6,1.3-0.6h3.8v24.7h8.3c2,0,3.4-0.5,4.1-1.4c0.8-0.9,1.2-2.2,1.2-3.8V84.9c0-0.6,0.2-1.1,0.5-1.5
				c0.4-0.4,0.8-0.6,1.3-0.6h3.8v35.7c0.4,0.4,1,0.8,1.7,1.1c0.6,0.3,1.4,0.5,2.3,0.7c0.9,0.2,2.1,0.3,3.4,0.3h1.3v5.3H624
				c-0.6,0-1.3-0.1-2.1-0.2c-0.8-0.1-1.6-0.4-2.3-0.6c-0.8-0.3-1.5-0.6-2.3-1.1c-0.7-0.4-1.4-1-1.9-1.6c-0.6,0.9-1.5,1.8-2.9,2.5
				c-1.4,0.7-3.1,1.1-5.2,1.1h-29.4V123z M586.4,91.8V90c0-0.5,0.1-0.9,0.4-1.2c0.3-0.3,0.6-0.4,0.9-0.4h0.6c-0.2-0.3-0.4-0.6-0.6-1
				c-0.1-0.4-0.2-1-0.2-1.7c0-1,0.2-1.9,0.6-2.7c0.4-0.8,0.9-1.4,1.6-1.9c0.7-0.5,1.4-0.8,2.3-1c0.9-0.2,1.7-0.3,2.7-0.3
				c0.7,0,1.3,0,1.9,0.1c0.6,0.1,1.2,0.2,1.7,0.3c0.5,0.1,1,0.2,1.5,0.3l-0.4,2.1c-0.1,0.4-0.2,0.7-0.5,0.9s-0.5,0.3-0.7,0.2
				c-0.1,0-0.5-0.1-1.2-0.2c-0.7-0.1-1.4-0.2-2.2-0.2c-1.5,0-2.5,0.3-3,0.8c-0.5,0.5-0.7,1.1-0.7,1.5c0,0.7,0.1,1.1,0.4,1.5
				c0.3,0.3,0.6,0.6,0.9,0.7c0.3,0.2,0.7,0.3,1.2,0.4c0.4,0.1,0.9,0.1,1.2,0.1h3.6c0.4,0,0.6,0.1,0.8,0.4c0.1,0.2,0.2,0.5,0.2,0.7
				v2.3H586.4z"/>
			<path class="st7" d="M639.3,111.8c0,2.2-0.2,4.2-0.6,6c-0.4,1.7-1.1,3.2-2.1,4.5c-1,1.2-2.4,2.2-4.1,2.8c-1.7,0.7-3.9,1-6.6,1
				h-2.9v-5.3h2.9c2.7,0,4.7-0.6,5.9-1.7c1.3-1.2,1.9-2.8,1.9-5V84.9c0-0.6,0.2-1,0.5-1.4c0.4-0.4,0.8-0.6,1.3-0.6h3.7V111.8z"/>
			<path class="st7" d="M700.9,123.2c-0.4,1-1,1.7-1.9,2.2c-0.9,0.5-2.1,0.7-3.7,0.7h-17c-1.1,0-2.1,0.1-3,0.2
				c-0.9,0.1-1.8,0.4-2.5,0.9s-1.3,1.1-1.7,1.9c-0.4,0.8-0.6,1.9-0.6,3.2c0,1.8,0.4,3.4,1.2,4.8c0.8,1.4,1.8,2.6,2.9,3.5
				c1.1,1,2.3,1.8,3.4,2.6c1.2,0.7,2.2,1.3,3,1.8c0.5,0.4,0.8,0.8,0.7,1.2c0,0.4-0.2,0.8-0.4,1.1c-0.1,0.2-0.6,1.1-1.6,2.6
				c-2.7-1.2-4.9-2.5-6.4-3.7c-1.5-1.3-2.7-2.3-3.6-3.3c-0.9-0.9-1.6-1.9-2.3-3c-0.7-1.1-1.2-2.3-1.6-3.6c-0.4-1.3-0.6-2.7-0.6-4.2
				c0-2.6,0.4-4.6,1.3-6.1c0.9-1.5,2-2.6,3.3-3.4s2.6-1.2,4-1.5c1.4-0.2,2.6-0.3,3.7-0.3h18.4v-5.9c0-1.7-0.1-3.3-0.2-4.7
				c-0.1-1.4-0.5-2.6-1.2-3.5c-0.6-1-1.7-1.7-3-2.2c-1.4-0.5-3.3-0.8-5.8-0.8c-2.2,0-4.3,0.2-6.3,0.5c-2,0.3-3.6,0.6-4.8,0.9
				c-1.2,0.3-1.8,0-2-0.9c-0.1-0.3-0.4-1.5-0.9-3.6c1.3-0.3,2.7-0.6,4.1-0.9c1.4-0.3,3-0.5,4.7-0.7c1.7-0.2,3.5-0.3,5.5-0.3
				c2.7,0,5.1,0.3,7.1,0.8c2,0.5,3.5,1.4,4.8,2.6c1.2,1.2,2.1,2.8,2.7,4.6c0.6,1.9,0.9,4.2,0.9,6.8v5c0.4,0.4,1,0.8,1.6,1.1
				c0.7,0.3,1.5,0.6,2.4,0.8c0.9,0.2,2.1,0.4,3.4,0.4h1.4v5.3h-1.4c-1.1,0-2.4-0.2-3.9-0.7C703.3,124.9,702,124.2,700.9,123.2z
				 M682.7,134.9c0-1,0.3-1.8,1-2.5c0.7-0.7,1.5-1,2.5-1c1,0,1.8,0.3,2.5,1c0.7,0.7,1,1.5,1,2.5c0,1-0.3,1.8-1,2.5
				c-0.7,0.7-1.5,1-2.5,1c-1,0-1.8-0.3-2.5-1C683.1,136.8,682.7,135.9,682.7,134.9z"/>
			<path class="st7" d="M717.3,100.8c0.4-0.4,0.9-0.6,1.4-0.6h3.5v18.4c0.4,0.4,1,0.8,1.6,1.1c0.7,0.3,1.5,0.6,2.4,0.8
				c0.9,0.2,2.1,0.3,3.5,0.3h1.3v5.3h-1.3c-0.6,0-1.2-0.1-2-0.2c-0.8-0.1-1.6-0.3-2.3-0.6c-0.8-0.3-1.5-0.6-2.3-1.1
				c-0.8-0.4-1.4-1-1.9-1.6c-0.6,0.9-1.5,1.8-2.9,2.4c-1.4,0.7-3.1,1-5.1,1H708v-5.3h3.4c2,0,3.4-0.5,4.2-1.5c0.8-1,1.2-2.2,1.2-3.7
				v-13.4C716.8,101.6,716.9,101.1,717.3,100.8z M711.6,133.8c0-1,0.3-1.8,1-2.5c0.7-0.7,1.5-1,2.5-1c1,0,1.8,0.3,2.5,1
				c0.7,0.7,1,1.5,1,2.5c0,1-0.3,1.8-1,2.5c-0.7,0.7-1.5,1-2.5,1c-1,0-1.8-0.3-2.5-1C711.9,135.6,711.6,134.8,711.6,133.8z
				 M720.7,133.8c0-1,0.3-1.8,1-2.5c0.7-0.7,1.5-1,2.5-1c1,0,1.8,0.3,2.5,1c0.7,0.7,1,1.5,1,2.5c0,1-0.3,1.8-1,2.5
				c-0.7,0.7-1.5,1-2.5,1c-1,0-1.8-0.3-2.5-1C721,135.6,720.7,134.8,720.7,133.8z"/>
			<path class="st7" d="M738.7,83.5c0.3-0.4,0.8-0.6,1.3-0.6h3.8v35.6c0.4,0.4,1,0.8,1.6,1.1c0.7,0.3,1.5,0.6,2.4,0.8
				c0.9,0.2,2.1,0.4,3.4,0.4h1.3v5.3h-1.3c-1.2,0-2.7-0.3-4.4-0.9s-3.1-1.5-4.2-2.8c-0.6,0.9-1.5,1.8-2.9,2.5
				c-1.4,0.7-3.1,1.1-5.2,1.1H729v-5.3h3.8c2,0,3.4-0.5,4.2-1.4c0.8-0.9,1.2-2.2,1.2-3.8V84.9C738.2,84.3,738.3,83.8,738.7,83.5z"/>
			<path class="st7" d="M785.6,123.2c-0.4,1-1,1.7-1.9,2.2c-0.9,0.5-2.1,0.7-3.7,0.7h-30.3v-5.3h31v-5.9c0-1.7-0.1-3.3-0.2-4.7
				c-0.1-1.4-0.5-2.6-1.2-3.5c-0.6-1-1.7-1.7-3-2.2c-1.4-0.5-3.3-0.8-5.8-0.8c-2.2,0-4.3,0.2-6.3,0.5c-2,0.3-3.6,0.6-4.8,0.9
				c-1.2,0.3-1.8,0-2-0.9l-0.9-3.6c1.3-0.3,2.6-0.6,4.1-0.9c1.4-0.3,3-0.5,4.7-0.7c1.7-0.2,3.5-0.3,5.5-0.3c2.8,0,5.2,0.3,7.1,0.8
				c1.9,0.5,3.5,1.4,4.8,2.6c1.2,1.2,2.1,2.8,2.7,4.6c0.5,1.9,0.8,4.2,0.8,6.8v5c0.4,0.4,1,0.8,1.6,1.1c0.7,0.3,1.5,0.6,2.4,0.8
				c0.9,0.2,2.1,0.4,3.5,0.4h1.3v5.3h-1.3c-1.1,0-2.5-0.2-4-0.7C788.1,124.9,786.7,124.2,785.6,123.2z M765.3,89.1
				c0-1,0.3-1.8,1-2.5c0.7-0.7,1.5-1,2.5-1c1,0,1.8,0.3,2.5,1c0.7,0.7,1,1.5,1,2.5c0,1-0.3,1.8-1,2.5c-0.7,0.7-1.5,1-2.5,1
				c-1,0-1.8-0.3-2.5-1C765.6,90.9,765.3,90.1,765.3,89.1z"/>
			<path class="st7" d="M809.1,111.8c0,2.2-0.2,4.2-0.6,6c-0.4,1.7-1.1,3.2-2.1,4.5c-1,1.2-2.4,2.2-4.1,2.8c-1.7,0.7-3.9,1-6.6,1
				h-2.9v-5.3h2.9c2.7,0,4.7-0.6,5.9-1.7c1.3-1.2,1.9-2.8,1.9-5V84.9c0-0.6,0.2-1,0.5-1.4c0.4-0.4,0.8-0.6,1.3-0.6h3.7V111.8z"/>
			<path class="st7" d="M824.8,124.1c0,0.6-0.2,1-0.5,1.4c-0.4,0.4-0.8,0.6-1.5,0.6h-3.6V84.9c0-0.6,0.2-1,0.6-1.4
				c0.4-0.4,0.9-0.6,1.4-0.6h3.6V124.1z"/>
			<path class="st7" d="M857.4,102.2c0-0.6,0.2-1.1,0.6-1.5c0.4-0.4,0.9-0.6,1.4-0.6h3.5v32.2c0,2.2-0.3,4-1,5.5
				c-0.7,1.4-1.6,2.5-2.8,3.2c-1.2,0.7-2.7,1.1-4.4,1.1c-1.7,0-3.6-0.2-5.7-0.8c-0.7-0.2-1.2-0.5-1.7-0.7c-0.5-0.3-0.6-0.7-0.4-1.5
				l0.8-3.3c1.2,0.5,2.2,0.9,3.1,1.1c0.9,0.2,1.6,0.3,2.1,0.3c1.7,0,2.9-0.4,3.5-1.3c0.7-0.9,1-2.2,1-4V102.2z"/>
			<path class="st7" d="M870.6,82.9h3.5c0.5,0,1,0.2,1.4,0.6c0.4,0.4,0.6,0.9,0.6,1.4v29.2c0,2.2,0.6,3.8,1.9,5
				c1.3,1.1,3.2,1.7,5.9,1.7h1.6v5.3h-1.6c-2.6,0-4.8-0.3-6.6-1c-1.7-0.7-3.1-1.6-4.1-2.8c-1-1.2-1.7-2.7-2.1-4.5
				c-0.4-1.7-0.6-3.7-0.6-5.9V82.9z"/>
			<path class="st7" d="M918.8,123.2c-0.4,1-1,1.7-1.9,2.2c-0.9,0.5-2.1,0.7-3.7,0.7h-30.3v-5.3h31v-5.9c0-1.7-0.1-3.3-0.2-4.7
				c-0.1-1.4-0.5-2.6-1.2-3.5c-0.6-1-1.7-1.7-3-2.2c-1.4-0.5-3.3-0.8-5.8-0.8c-2.2,0-4.3,0.2-6.3,0.5c-2,0.3-3.6,0.6-4.8,0.9
				c-1.2,0.3-1.8,0-2-0.9l-0.9-3.6c1.3-0.3,2.6-0.6,4.1-0.9c1.4-0.3,3-0.5,4.7-0.7c1.7-0.2,3.5-0.3,5.5-0.3c2.8,0,5.2,0.3,7.1,0.8
				c1.9,0.5,3.5,1.4,4.8,2.6c1.2,1.2,2.1,2.8,2.7,4.6c0.5,1.9,0.8,4.2,0.8,6.8v5c0.4,0.4,1,0.8,1.6,1.1c0.7,0.3,1.5,0.6,2.4,0.8
				c0.9,0.2,2.1,0.4,3.5,0.4h1.3v5.3h-1.3c-1.1,0-2.5-0.2-4-0.7C921.3,124.9,920,124.2,918.8,123.2z"/>
			<path class="st7" d="M939.2,100.8c0.4-0.4,0.9-0.6,1.4-0.6h3.5V115c0,3.8-1.1,6.6-3.3,8.4c-2.2,1.8-5.4,2.7-9.8,2.7h-4.9v-5.3
				h4.7c2.4,0,4.3-0.6,5.7-1.7c1.4-1.1,2.1-2.8,2.1-5v-11.8C938.6,101.6,938.8,101.1,939.2,100.8z M934.2,133.7c0-1,0.3-1.8,1-2.5
				c0.7-0.7,1.5-1,2.5-1c1,0,1.8,0.3,2.5,1c0.7,0.7,1,1.5,1,2.5c0,1-0.3,1.8-1,2.5c-0.7,0.7-1.5,1-2.5,1c-1,0-1.8-0.3-2.5-1
				C934.6,135.5,934.2,134.7,934.2,133.7z"/>
			<path class="st7" d="M1001.8,120.8v5.3h-3.6c-0.8,0-1.4-0.1-2.1-0.4s-1.2-0.6-1.7-0.9s-0.9-0.7-1.2-1.1c-0.3-0.4-0.6-0.7-0.7-1
				c-0.3,0.3-0.7,0.7-1.2,1.1c-0.5,0.5-1.1,0.9-1.9,1.3c-0.8,0.4-1.7,0.8-2.8,1.1c-1.1,0.3-2.3,0.5-3.7,0.5c-1.5,0-3-0.2-4.5-0.6
				c-1.5-0.4-2.9-1.1-4.1-2.2c-1.3-1.1-2.3-2.6-3.1-4.6c-0.8-2-1.2-4.5-1.2-7.7c0-1.9,0.2-3.7,0.7-5.4c0.5-1.7,1.2-3.1,2.3-4.4
				c1.1-1.3,2.4-2.2,4.1-2.9c1.7-0.7,3.7-1.1,6.2-1.1c1.7,0,3.3,0.1,4.8,0.3c1.6,0.2,3,0.4,4.3,0.6c1.3,0.2,2.6,0.5,3.8,0.9V118
				c0,0.9,0.3,1.6,0.9,2.1s1.3,0.7,2.1,0.7H1001.8z M990.9,103.5c-1.2-0.3-2.5-0.5-3.7-0.6c-1.3-0.1-2.3-0.1-3.1-0.1
				c-1.2,0-2.3,0.1-3.3,0.4c-1,0.2-1.9,0.7-2.7,1.4c-0.8,0.7-1.3,1.6-1.8,2.8c-0.4,1.2-0.6,2.7-0.6,4.5c0,3.5,0.7,5.9,2.1,7.4
				c1.4,1.5,3.3,2.3,5.8,2.3c1.3,0,2.4-0.1,3.3-0.4c0.9-0.3,1.7-0.6,2.3-1c0.6-0.4,1.2-0.9,1.7-1.4V103.5z M977.5,88.4
				c0-1,0.3-1.8,1-2.5c0.7-0.7,1.5-1,2.5-1c1,0,1.8,0.3,2.5,1c0.7,0.7,1,1.5,1,2.5c0,1-0.3,1.8-1,2.5c-0.7,0.7-1.5,1-2.5,1
				c-1,0-1.8-0.3-2.5-1C977.9,90.3,977.5,89.4,977.5,88.4z M986.6,88.4c0-1,0.3-1.8,1-2.5c0.7-0.7,1.5-1,2.5-1c1,0,1.8,0.3,2.5,1
				c0.7,0.7,1,1.5,1,2.5c0,1-0.3,1.8-1,2.5c-0.7,0.7-1.5,1-2.5,1c-1,0-1.8-0.3-2.5-1C987,90.3,986.6,89.4,986.6,88.4z"/>
			<path class="st7" d="M999.5,126.1v-5.3h31.2v-3.2c0-1.5-0.2-2.9-0.5-4.3c-0.3-1.4-0.9-2.6-1.8-3.7c-0.9-1.1-2.1-1.9-3.8-2.6
				c-1.6-0.6-3.8-1-6.5-1h-9.3c-0.5,0-0.9-0.1-1.2-0.2c-0.3-0.2-0.6-0.4-0.9-0.8l-2.2-3.7l23.8-18.4l2.9,3.1c0.2,0.3,0.3,0.6,0.3,1
				c0,0.4-0.2,0.7-0.5,1c0,0-5.8,4.4-17.2,13h6.2c2.9,0,5.3,0.4,7.4,1.2c2,0.8,3.7,1.9,4.9,3.4c1.3,1.5,2.2,3.2,2.7,5.4
				s0.9,4.5,0.9,7.1v5.8c0,0.7-0.1,1.2-0.4,1.6c-0.3,0.4-0.7,0.6-1.1,0.6H999.5z"/>
			<path class="st7" d="M1050.2,102.2c0-0.6,0.2-1.1,0.6-1.5c0.4-0.4,0.9-0.6,1.4-0.6h3.5v18.4c0.1,0.1,0.3,0.3,0.6,0.5
				c0.3,0.3,0.8,0.5,1.4,0.7c0.6,0.2,1.4,0.5,2.2,0.6c0.9,0.2,1.9,0.3,3.1,0.3h1.4v5.3h-1.4c-1,0-2.2-0.2-3.6-0.6
				c-1.4-0.4-2.7-1-3.8-1.8v8.7c0,2.2-0.3,4-1,5.5c-0.7,1.4-1.6,2.5-2.8,3.2c-1.2,0.7-2.7,1.1-4.4,1.1c-1.7,0-3.6-0.2-5.7-0.8
				c-0.7-0.2-1.2-0.5-1.7-0.7c-0.5-0.3-0.6-0.7-0.4-1.5l0.8-3.3c1,0.4,2,0.8,2.9,1c1,0.3,1.7,0.4,2.2,0.4c1.7,0,2.9-0.4,3.5-1.3
				c0.7-0.9,1-2.2,1-4V102.2z"/>
			<path class="st7" d="M1103,126.1c-1.3,0-2.5-0.2-3.5-0.5c-1-0.4-1.9-0.8-2.7-1.2s-1.4-0.9-1.8-1.4c-0.5-0.4-0.7-0.8-0.9-1
				c-0.1,0.2-0.4,0.5-0.7,0.9c-0.4,0.4-0.9,0.8-1.6,1.3c-0.7,0.5-1.6,0.9-2.6,1.2c-1.1,0.4-2.3,0.6-3.8,0.7h-1.5
				c-0.6,0-1.2-0.1-2-0.2c-0.8-0.1-1.5-0.3-2.3-0.6c-0.8-0.3-1.5-0.6-2.3-1.1c-0.7-0.4-1.4-1-1.9-1.6c-0.6,0.9-1.5,1.8-2.9,2.4
				c-1.4,0.7-3.1,1-5.2,1h-4.8v-5.3h3.1c2,0,3.4-0.5,4.2-1.5c0.8-1,1.2-2.2,1.2-3.7V107c0-0.5,0.2-1,0.6-1.4
				c0.4-0.4,0.9-0.6,1.4-0.6h3.5v13.5c0.4,0.4,1,0.8,1.6,1.1c0.7,0.3,1.5,0.6,2.4,0.8c0.9,0.2,2.1,0.3,3.4,0.3c0.7,0,1.4,0,2.1-0.1
				c0.7-0.1,1.4-0.3,2.1-0.6c0.6-0.3,1.2-0.8,1.6-1.3c0.4-0.6,0.6-1.4,0.6-2.4V107c0-0.5,0.2-1,0.6-1.4c0.4-0.4,0.9-0.6,1.4-0.6h3.6
				v12.9c1,1.2,2.2,2,3.5,2.3c1.3,0.3,2.5,0.5,3.6,0.5c2.8,0,4.8-0.6,5.7-1.9c1-1.3,1.5-3.1,1.5-5.6v-11.1c0-0.6,0.2-1.1,0.6-1.5
				c0.4-0.4,0.9-0.6,1.4-0.6h3.6v13c0,1.9-0.2,3.7-0.6,5.3c-0.4,1.6-1,2.9-2,4.1c-0.9,1.1-2.3,2-3.9,2.6
				C1107.6,125.8,1105.5,126.1,1103,126.1z M1086,93.2c0-1,0.3-1.8,1-2.5c0.7-0.7,1.5-1,2.5-1c1,0,1.8,0.3,2.5,1
				c0.7,0.7,1,1.5,1,2.5c0,1-0.3,1.8-1,2.5c-0.7,0.7-1.5,1-2.5,1c-1,0-1.8-0.3-2.5-1C1086.3,95.1,1086,94.2,1086,93.2z M1090.4,84.5
				c0-1,0.3-1.8,1-2.5c0.7-0.7,1.5-1,2.5-1c1,0,1.8,0.3,2.5,1c0.7,0.7,1,1.5,1,2.5c0,1-0.3,1.8-1,2.5c-0.7,0.7-1.5,1-2.5,1
				c-1,0-1.8-0.3-2.5-1C1090.8,86.4,1090.4,85.5,1090.4,84.5z M1095,93.2c0-1,0.3-1.8,1-2.5c0.7-0.7,1.5-1,2.5-1c1,0,1.8,0.3,2.5,1
				c0.7,0.7,1,1.5,1,2.5c0,1-0.3,1.8-1,2.5c-0.7,0.7-1.5,1-2.5,1c-1,0-1.8-0.3-2.5-1C1095.3,95.1,1095,94.2,1095,93.2z"/>
		</g>
	</g>
</g>
</svg>
